<svg xmlns="http://www.w3.org/2000/svg" width="84.558" height="88.021" viewBox="0 0 84.558 88.021">
  <g id="Grupo_6199" data-name="Grupo 6199" transform="translate(-232.839 -231.667)">
    <g id="Grupo_6488" data-name="Grupo 6488">
      <g id="Grupo_6198" data-name="Grupo 6198" transform="translate(232.839 231.667)">
        <path id="Caminho_4296" data-name="Caminho 4296" d="M245.94,231.667c-23.351,0-42.279,19.7-42.279,44.01s18.928,44.01,42.279,44.01,42.279-19.7,42.279-44.01S269.291,231.667,245.94,231.667Zm25.237,43.848-21.851,21.851a11.685,11.685,0,0,1-16.356,0L220.7,285.1a11.435,11.435,0,0,1,16.172-16.172l4.278,4.273,13.857-13.857a11.435,11.435,0,1,1,16.172,16.172Z" transform="translate(-203.661 -231.667)" fill="#00dd80"/>
        <path id="Caminho_4297" data-name="Caminho 4297" d="M246.9,240.513a8.519,8.519,0,0,0-12.053,0L221.1,254.259l-8.259,8.26a8.519,8.519,0,0,0,0,12.053l.283.283a8.519,8.519,0,0,0,12.053,0l5.233-5.233,16.772-16.772a8.519,8.519,0,0,0,0-12.053Zm-27.714,34.735a6.736,6.736,0,1,1,6.734-6.738A6.739,6.739,0,0,1,219.186,275.248Z" transform="translate(-181.699 -210.805)" fill="#00dd80"/>
      </g>
    </g>
  </g>
</svg>
