<svg xmlns="http://www.w3.org/2000/svg" width="235.564" height="67.173" viewBox="0 0 235.564 67.173">
  <g id="Grupo_6492" data-name="Grupo 6492" transform="translate(-661 -281.328)">
    <g id="Grupo_6486" data-name="Grupo 6486" transform="translate(531.67 125.343)">
      <g id="Grupo_6200" data-name="Grupo 6200" transform="translate(201.322 164.063)">
        <path id="Caminho_4298" data-name="Caminho 4298" d="M187.884,193.963a2.833,2.833,0,0,1-1.054,2.22,3.6,3.6,0,0,1-2.419.913,3.24,3.24,0,0,1-1.71-.486,3.2,3.2,0,0,1-1.249-1.509l-3.417-7.631H157.992l-3.42,7.631a3.221,3.221,0,0,1-1.252,1.509,3.329,3.329,0,0,1-1.765.486,3.625,3.625,0,0,1-2.391-.913,2.806,2.806,0,0,1-1.081-2.22,3.532,3.532,0,0,1,.339-1.481l15.717-33.767a3.666,3.666,0,0,1,1.567-1.738,4.545,4.545,0,0,1,4.5,0,3.651,3.651,0,0,1,1.567,1.738l15.775,33.767A3.487,3.487,0,0,1,187.884,193.963ZM160.5,181.779h15.03l-7.512-16.914Z" transform="translate(-148.083 -156.382)" fill="#00dd80"/>
        <path id="Caminho_4299" data-name="Caminho 4299" d="M188.862,157.31a3.055,3.055,0,0,1,1.026,2.391v34.054a3.2,3.2,0,0,1-.968,2.446,4.051,4.051,0,0,1-5.124,0,3.19,3.19,0,0,1-.971-2.446v-1.423a8.9,8.9,0,0,1-3.616,3.643,10.9,10.9,0,0,1-5.38,1.307,11.524,11.524,0,0,1-6.4-1.82,12.082,12.082,0,0,1-4.388-5.152,17.8,17.8,0,0,1-1.567-7.662,17.248,17.248,0,0,1,1.567-7.573,11.489,11.489,0,0,1,10.792-6.773,11.165,11.165,0,0,1,5.353,1.252,8.69,8.69,0,0,1,3.588,3.53V159.591a3.024,3.024,0,0,1,.938-2.309,3.567,3.567,0,0,1,2.535-.883A3.8,3.8,0,0,1,188.862,157.31Zm-7.888,32.118q1.851-2.336,1.851-6.663t-1.851-6.636a6.3,6.3,0,0,0-5.21-2.306,6.485,6.485,0,0,0-5.295,2.278q-1.883,2.281-1.881,6.547a10.629,10.629,0,0,0,1.881,6.721,7.021,7.021,0,0,0,10.5.058Z" transform="translate(-120.589 -156.345)" fill="#00dd80"/>
        <path id="Caminho_4300" data-name="Caminho 4300" d="M180.838,193.124a15.551,15.551,0,0,1-6.147-6.648,24.873,24.873,0,0,1-.024-20.23,15.355,15.355,0,0,1,6.144-6.62,20.317,20.317,0,0,1,18.859,0,15.393,15.393,0,0,1,6.12,6.62,24.856,24.856,0,0,1-.027,20.23,15.489,15.489,0,0,1-6.144,6.648,20.157,20.157,0,0,1-18.78,0Zm17.409-6.648q2.876-3.532,2.877-10.129t-2.877-10.1a10.914,10.914,0,0,0-16.035,0q-2.876,3.513-2.877,10.1t2.877,10.129a10.857,10.857,0,0,0,16.035,0Z" transform="translate(-97.879 -154.486)" fill="#00dd80"/>
        <path id="Caminho_4301" data-name="Caminho 4301" d="M207.983,162.118a12.123,12.123,0,0,1,4.385,5.155,17.807,17.807,0,0,1,1.567,7.659,17.23,17.23,0,0,1-1.567,7.573,11.489,11.489,0,0,1-10.792,6.773,11.042,11.042,0,0,1-5.3-1.249,8.836,8.836,0,0,1-3.588-3.472v11.613a2.956,2.956,0,0,1-.965,2.333,3.736,3.736,0,0,1-2.565.858,3.684,3.684,0,0,1-2.589-.913,3.085,3.085,0,0,1-1-2.391V163.77a3.255,3.255,0,0,1,.94-2.449,3.5,3.5,0,0,1,2.535-.913,3.6,3.6,0,0,1,2.562.913,3.206,3.206,0,0,1,.968,2.449v1.423a8.742,8.742,0,0,1,3.616-3.616,11.1,11.1,0,0,1,5.381-1.279A11.552,11.552,0,0,1,207.983,162.118Zm-3.044,19.333a10.092,10.092,0,0,0,1.878-6.52,10.663,10.663,0,0,0-1.878-6.718,7.018,7.018,0,0,0-10.508-.058q-1.851,2.336-1.851,6.663a10.406,10.406,0,0,0,1.851,6.605,7.11,7.11,0,0,0,10.508.027Z" transform="translate(-71.087 -148.34)" fill="#00dd80"/>
        <path id="Caminho_4302" data-name="Caminho 4302" d="M216.047,191.757a2.311,2.311,0,0,1-1.109,2.077,5.31,5.31,0,0,1-3.16.6l-1.539-.116q-9.564-.678-9.564-10.245V171.655h-2.849a3.6,3.6,0,0,1-2.364-.684,2.82,2.82,0,0,1,0-3.985,3.622,3.622,0,0,1,2.364-.684h2.849v-5.237a3.215,3.215,0,0,1,.965-2.452,3.685,3.685,0,0,1,2.62-.907,3.594,3.594,0,0,1,2.562.907,3.208,3.208,0,0,1,.971,2.452V166.3h4.837a3.617,3.617,0,0,1,2.364.684,2.813,2.813,0,0,1,0,3.985,3.6,3.6,0,0,1-2.364.684h-4.837v12.926q0,4.214,3.869,4.5l1.539.113C215.1,189.305,216.047,190.163,216.047,191.757Z" transform="translate(-52.475 -153.663)" fill="#00dd80"/>
      </g>
      <g id="Grupo_6487" data-name="Grupo 6487">
        <g id="Grupo_6201" data-name="Grupo 6201" transform="translate(129.33 155.985)">
          <path id="Caminho_4303" data-name="Caminho 4303" d="M161.594,155.985c-17.817,0-32.264,15.038-32.264,33.588s14.447,33.585,32.264,33.585,32.268-15.038,32.268-33.585S179.415,155.985,161.594,155.985Zm20.692,33.446-17.913,17.917a9.583,9.583,0,0,1-13.411,0l-10.056-10.06a9.374,9.374,0,1,1,13.257-13.257l3.5,3.5,11.361-11.361a9.374,9.374,0,1,1,13.257,13.257Z" transform="translate(-129.33 -155.985)" fill="#00dd80"/>
          <path id="Caminho_4304" data-name="Caminho 4304" d="M165.029,163.427l-.234-.234a6.984,6.984,0,0,0-9.88,0l-11.269,11.269-6.774,6.774a6.984,6.984,0,0,0,0,9.88l.234.234a6.991,6.991,0,0,0,9.88,0l4.291-4.291,13.752-13.752A6.985,6.985,0,0,0,165.029,163.427Zm-22.957,28.242a5.521,5.521,0,1,1,5.523-5.519A5.521,5.521,0,0,1,142.072,191.668Z" transform="translate(-113.735 -141.338)" fill="#00dd80"/>
        </g>
      </g>
    </g>
  </g>
</svg>
